<svg width="22" height="21" viewBox="0 0 22 21" fill="none" xmlns="http://www.w3.org/2000/svg">
<path d="M20.3498 11.0987H20.0051V3.86162C20.0051 2.98857 19.7065 2.25337 19.1091 1.65602C18.5118 1.05867 17.7995 0.759996 16.9724 0.759996C16.1454 0.759996 15.4906 1.01272 15.0081 1.51817C14.5256 2.02362 14.2384 2.68989 14.1465 3.51699C13.733 3.60889 13.3998 3.81567 13.1471 4.13732C12.8944 4.45897 12.768 4.82656 12.768 5.24011C12.768 5.46986 12.8829 5.58474 13.1127 5.58474H15.8697C16.0994 5.58474 16.2143 5.46986 16.2143 5.24011C16.2143 4.82656 16.0879 4.45897 15.8352 4.13732C15.5825 3.81567 15.2493 3.63187 14.8358 3.58592C14.8817 2.98857 15.0885 2.48312 15.4561 2.06957C15.8237 1.65602 16.3292 1.44925 16.9724 1.44925C17.6157 1.44925 18.1671 1.679 18.6266 2.13849C19.0861 2.59799 19.3159 3.17237 19.3159 3.86162V11.0987H8.97716C8.88526 10.6852 8.67849 10.352 8.35684 10.0993C8.03519 9.84659 7.66759 9.72023 7.25404 9.72023C6.88644 9.26073 6.42694 9.03098 5.87554 9.03098C5.55389 9.03098 5.25522 9.11139 4.97952 9.27222C4.70382 9.43304 4.49705 9.65131 4.3592 9.927C4.03755 9.78916 3.73887 9.72023 3.46317 9.72023C3.04962 9.72023 2.68202 9.84659 2.36037 10.0993C2.03872 10.352 1.83195 10.6852 1.74005 11.0987C1.46435 11.0987 1.22311 11.2021 1.01634 11.4089C0.809564 11.6157 0.706177 11.8569 0.706177 12.1326C0.706177 12.4083 0.809564 12.6495 1.01634 12.8563C1.22311 13.0631 1.46435 13.1665 1.74005 13.1665H2.1536L3.11855 16.8195C3.2564 17.3709 3.54358 17.8189 3.98011 18.1635C4.41663 18.5082 4.91059 18.6805 5.46199 18.6805H5.73769L5.25522 19.5765C5.20927 19.6684 5.19778 19.7603 5.22076 19.8522C5.24373 19.9441 5.28968 20.0015 5.35861 20.0245C5.42753 20.0475 5.50794 20.059 5.59984 20.059C5.69174 20.059 5.78364 19.99 5.87554 19.8522L6.42694 18.6805H16.0075L16.6278 19.8522C16.6738 19.99 16.7542 20.059 16.8691 20.059C16.9839 20.059 17.0643 20.036 17.1103 19.99C17.1562 19.9441 17.1907 19.8752 17.2137 19.7833C17.2367 19.6914 17.2252 19.5995 17.1792 19.5076L16.7657 18.6805C17.2711 18.6805 17.7421 18.5082 18.1786 18.1635C18.6152 17.8189 18.9023 17.3939 19.0402 16.8884L19.9362 13.1665H20.3498C20.6255 13.1665 20.8667 13.0631 21.0735 12.8563C21.2803 12.6495 21.3836 12.4083 21.3836 12.1326C21.3836 11.8569 21.2803 11.6157 21.0735 11.4089C20.8667 11.2021 20.6255 11.0987 20.3498 11.0987ZM15.525 4.89549H13.5262C13.5722 4.71169 13.6985 4.55087 13.9053 4.41302C14.1121 4.27517 14.3188 4.20624 14.5256 4.20624C14.7324 4.20624 14.9277 4.26368 15.1115 4.37855C15.2953 4.49343 15.4331 4.66574 15.525 4.89549ZM3.46317 10.4095C3.78482 10.4095 4.06052 10.5473 4.29027 10.823C4.38217 10.9149 4.49705 10.9379 4.6349 10.892C4.77274 10.846 4.84167 10.7541 4.84167 10.6163C4.93357 10.3406 5.07142 10.1223 5.25522 9.96147C5.43902 9.80064 5.64579 9.72023 5.87554 9.72023C6.33504 9.72023 6.65669 9.88105 6.84049 10.2027C6.84049 10.2946 6.87495 10.352 6.94388 10.375C7.0128 10.398 7.09322 10.4095 7.18512 10.4095H7.32297C7.50676 10.4095 7.69056 10.4669 7.87436 10.5818C8.05816 10.6967 8.17304 10.869 8.21899 11.0987H2.49822C2.59012 10.869 2.71649 10.6967 2.87731 10.5818C3.03814 10.4669 3.23342 10.4095 3.46317 10.4095ZM18.4199 16.6816C18.282 17.0492 18.0638 17.3594 17.7651 17.6121C17.4664 17.8649 17.1103 17.9912 16.6967 17.9912H5.46199C5.04844 17.9912 4.69233 17.8649 4.39366 17.6121C4.09498 17.3594 3.8997 17.0492 3.8078 16.6816L2.91177 13.1665H19.247L18.4199 16.6816ZM20.3498 12.4772H19.6605H1.74005C1.5103 12.4772 1.39543 12.3623 1.39543 12.1326C1.39543 11.9029 1.5103 11.788 1.74005 11.788H20.3498C20.5795 11.788 20.6944 11.9029 20.6944 12.1326C20.6944 12.3623 20.5795 12.4772 20.3498 12.4772ZM13.1127 7.10108C13.3424 7.10108 13.4573 7.00918 13.4573 6.82539V6.61861C13.4573 6.38886 13.3424 6.27399 13.1127 6.27399C12.8829 6.27399 12.768 6.38886 12.768 6.61861V6.75646C12.768 6.98621 12.8829 7.10108 13.1127 7.10108ZM13.1127 8.75528C13.2046 8.75528 13.285 8.70933 13.3539 8.61743C13.4228 8.52553 13.4573 8.45661 13.4573 8.41066V7.99711C13.4573 7.76736 13.3424 7.65248 13.1127 7.65248C12.8829 7.65248 12.768 7.76736 12.768 7.99711V8.41066C12.768 8.64041 12.8829 8.75528 13.1127 8.75528ZM13.1127 10.0649C13.3424 10.0649 13.4573 9.94998 13.4573 9.72023V9.58238C13.4573 9.35263 13.3424 9.23776 13.1127 9.23776C12.8829 9.23776 12.768 9.35263 12.768 9.58238V9.72023C12.768 9.94998 12.8829 10.0649 13.1127 10.0649ZM14.4912 7.10108C14.7209 7.10108 14.8358 7.00918 14.8358 6.82539V6.61861C14.8358 6.38886 14.7209 6.27399 14.4912 6.27399C14.2614 6.27399 14.1465 6.38886 14.1465 6.61861V6.75646C14.1465 6.98621 14.2614 7.10108 14.4912 7.10108ZM14.1465 8.34173C14.1465 8.57148 14.2614 8.68636 14.4912 8.68636C14.5831 8.68636 14.6635 8.65189 14.7324 8.58297C14.8013 8.51404 14.8358 8.43363 14.8358 8.34173V7.99711C14.8358 7.76736 14.7209 7.65248 14.4912 7.65248C14.2614 7.65248 14.1465 7.76736 14.1465 7.99711V8.34173ZM14.1465 9.72023C14.1465 9.94998 14.2614 10.0649 14.4912 10.0649C14.7209 10.0649 14.8358 9.94998 14.8358 9.72023V9.51346C14.8358 9.28371 14.7209 9.16883 14.4912 9.16883C14.2614 9.16883 14.1465 9.28371 14.1465 9.51346V9.72023ZM15.8697 7.10108C16.0994 7.10108 16.2143 7.00918 16.2143 6.82539V6.61861C16.2143 6.38886 16.0994 6.27399 15.8697 6.27399C15.6399 6.27399 15.525 6.38886 15.525 6.61861V6.75646C15.525 6.98621 15.6399 7.10108 15.8697 7.10108ZM15.525 8.34173C15.525 8.57148 15.6399 8.68636 15.8697 8.68636C15.9616 8.68636 16.042 8.65189 16.1109 8.58297C16.1798 8.51404 16.2143 8.43363 16.2143 8.34173V7.99711C16.2143 7.76736 16.0994 7.65248 15.8697 7.65248C15.6399 7.65248 15.525 7.76736 15.525 7.99711V8.34173ZM15.525 9.72023C15.525 9.94998 15.6399 10.0649 15.8697 10.0649C16.0994 10.0649 16.2143 9.94998 16.2143 9.72023V9.51346C16.2143 9.28371 16.0994 9.16883 15.8697 9.16883C15.6399 9.16883 15.525 9.28371 15.525 9.51346V9.72023Z" fill="#696969"/>
</svg>
