<svg width="21" height="15" viewBox="0 0 21 15" fill="none" xmlns="http://www.w3.org/2000/svg">
<path d="M20.3142 10.9934H19.9696V8.37429C19.9696 8.00669 19.8432 7.69653 19.5905 7.44381C19.3378 7.19108 19.0276 7.06472 18.66 7.06472V1.61966C18.66 1.25206 18.5336 0.941895 18.2809 0.68917C18.0282 0.436445 17.718 0.310083 17.3504 0.310083H3.84115C3.47355 0.310083 3.16339 0.436445 2.91067 0.68917C2.65794 0.941895 2.53158 1.25206 2.53158 1.61966V7.06472C2.16398 7.06472 1.85382 7.19108 1.6011 7.44381C1.34837 7.69653 1.22201 8.00669 1.22201 8.37429V10.9934H0.877384C0.785484 10.9934 0.716559 11.0164 0.670609 11.0624C0.62466 11.1083 0.601685 11.1772 0.601685 11.2691V12.5787C0.601685 12.6706 0.62466 12.751 0.670609 12.8199C0.716559 12.8889 0.785484 12.9233 0.877384 12.9233H1.22201V14.164C1.22201 14.2559 1.25647 14.3363 1.3254 14.4052C1.39432 14.4741 1.47473 14.5086 1.56663 14.5086H2.53158C2.71538 14.5086 2.80728 14.4167 2.80728 14.2329L3.08298 12.9233H18.1086L18.3843 14.2329C18.3843 14.4167 18.4762 14.5086 18.66 14.5086H19.625C19.7169 14.5086 19.7973 14.4741 19.8662 14.4052C19.9351 14.3363 19.9696 14.2559 19.9696 14.164V12.9233H20.3142C20.4061 12.9233 20.475 12.8889 20.521 12.8199C20.5669 12.751 20.5899 12.6706 20.5899 12.5787V11.2691C20.5899 11.1772 20.5669 11.1083 20.521 11.0624C20.475 11.0164 20.4061 10.9934 20.3142 10.9934ZM3.1519 1.61966C3.1519 1.43586 3.22083 1.27503 3.35868 1.13718C3.49653 0.999332 3.65735 0.930408 3.84115 0.930408H17.3504C17.5342 0.930408 17.6951 0.999332 17.8329 1.13718C17.9708 1.27503 18.0397 1.43586 18.0397 1.61966V7.06472H17.3504V5.82407C17.3504 5.45647 17.2241 5.14631 16.9713 4.89359C16.7186 4.64086 16.4314 4.5145 16.1098 4.5145H12.1811C11.8594 4.5145 11.5722 4.64086 11.3195 4.89359C11.0668 5.14631 10.9404 5.45647 10.9404 5.82407V7.06472H10.2512V5.82407C10.2512 5.45647 10.1248 5.14631 9.87208 4.89359C9.61936 4.64086 9.33217 4.5145 9.01052 4.5145H5.0818C4.76015 4.5145 4.47297 4.64086 4.22024 4.89359C3.96752 5.14631 3.84115 5.45647 3.84115 5.82407V7.06472H3.1519V1.61966ZM16.7301 5.82407V7.06472H11.5607V5.82407C11.5607 5.64027 11.6297 5.47945 11.7675 5.3416C11.9054 5.20375 12.0432 5.13482 12.1811 5.13482H16.1098C16.2936 5.13482 16.4429 5.20375 16.5578 5.3416C16.6727 5.47945 16.7301 5.64027 16.7301 5.82407ZM9.63084 5.82407V7.06472H4.46148V5.82407C4.46148 5.64027 4.51891 5.47945 4.63379 5.3416C4.74866 5.20375 4.898 5.13482 5.0818 5.13482H9.01052C9.14837 5.13482 9.28622 5.20375 9.42407 5.3416C9.56192 5.47945 9.63084 5.64027 9.63084 5.82407ZM1.84233 8.37429C1.84233 8.19049 1.91126 8.04116 2.04911 7.92628C2.18696 7.81141 2.34778 7.75397 2.53158 7.75397H18.66C18.8438 7.75397 19.0046 7.81141 19.1425 7.92628C19.2803 8.04116 19.3493 8.19049 19.3493 8.37429V10.9934H1.84233V8.37429ZM2.25588 13.8883H1.84233V12.9233H2.46266L2.25588 13.8883ZM19.3493 13.8883H18.9357L18.7289 12.9233H19.3493V13.8883ZM19.9696 12.2341H1.22201V11.6138H19.9696V12.2341Z" fill="#696969"/>
</svg>
