<svg width="28" height="16" viewBox="0 0 28 16" fill="none" xmlns="http://www.w3.org/2000/svg">
<path d="M9.25621 7.5588C10.1344 7.74594 10.8398 8.18502 11.3724 8.87603C11.9051 9.55264 12.1714 10.33 12.1714 11.2082C12.1714 12.475 11.7251 13.4828 10.8326 14.2313C9.95442 14.9655 8.72356 15.3326 7.14 15.3326H0.0787582V0.173643H6.90247C8.44284 0.173643 9.64491 0.526345 10.5087 1.23175C11.3868 1.93715 11.8259 2.89449 11.8259 4.10375C11.8259 4.99631 11.5884 5.7377 11.1133 6.32794C10.6526 6.91817 10.0336 7.32846 9.25621 7.5588ZM3.77133 6.30634H6.18987C6.7945 6.30634 7.25517 6.17678 7.57188 5.91765C7.90299 5.64413 8.06854 5.24824 8.06854 4.72998C8.06854 4.21172 7.90299 3.81583 7.57188 3.54231C7.25517 3.26879 6.7945 3.13202 6.18987 3.13202H3.77133V6.30634ZM6.49218 12.3527C7.11121 12.3527 7.58628 12.2159 7.91739 11.9424C8.26289 11.6545 8.43564 11.2442 8.43564 10.7115C8.43564 10.1789 8.25569 9.76139 7.89579 9.45907C7.55029 9.15675 7.06802 9.00559 6.44899 9.00559H3.77133V12.3527H6.49218ZM27.9821 0.173643V15.3326H24.2895V9.09197H18.5455V15.3326H14.8529V0.173643H18.5455V6.112H24.2895V0.173643H27.9821Z" fill="#FEFEFF"/>
</svg>
