<svg width="198" height="44" viewBox="0 0 198 44" fill="none" xmlns="http://www.w3.org/2000/svg">
<ellipse cx="21.856" cy="21.6853" rx="21.594" ry="21.594" fill="#4BA586"/>
<path d="M63.6706 20.9344C64.638 21.1072 65.4586 21.6168 66.1323 22.4633C66.8061 23.3098 67.1429 24.2685 67.1429 25.3396C67.1429 26.2552 66.9011 27.0844 66.4174 27.8272C65.9509 28.5528 65.2686 29.1315 64.3703 29.5634C63.472 29.978 62.4268 30.1853 61.2348 30.1853H54.031V12.1759H60.8979C62.1245 12.1759 63.1783 12.3832 64.0593 12.7978C64.9403 13.2124 65.6054 13.7739 66.0546 14.4821C66.5038 15.1731 66.7283 15.9505 66.7283 16.8143C66.7283 17.8508 66.4519 18.7146 65.8991 19.4056C65.3463 20.0966 64.6035 20.6062 63.6706 20.9344ZM56.9851 19.7424H60.6388C61.6062 19.7424 62.3577 19.5265 62.8932 19.0946C63.446 18.6455 63.7224 18.0063 63.7224 17.1771C63.7224 16.3651 63.446 15.7346 62.8932 15.2854C62.3577 14.819 61.6062 14.5858 60.6388 14.5858H56.9851V19.7424ZM60.9757 27.7754C61.9776 27.7754 62.7637 27.5336 63.3337 27.0499C63.9038 26.5661 64.1889 25.8924 64.1889 25.0287C64.1889 24.1476 63.8866 23.448 63.2819 22.9297C62.6773 22.4115 61.874 22.1523 60.872 22.1523H56.9851V27.7754H60.9757ZM83.9789 22.6965C83.9789 23.232 83.9444 23.7157 83.8753 24.1476H72.966C73.0523 25.2878 73.4756 26.2034 74.2357 26.8944C74.9958 27.5854 75.9287 27.9309 77.0343 27.9309C78.6236 27.9309 79.7465 27.2658 80.4029 25.9356H83.5902C83.1583 27.2485 82.3723 28.3282 81.2322 29.1747C80.1093 30.0039 78.71 30.4185 77.0343 30.4185C75.6695 30.4185 74.443 30.1162 73.3547 29.5116C72.2836 28.8897 71.4371 28.0259 70.8152 26.9203C70.2106 25.7974 69.9082 24.5018 69.9082 23.0334C69.9082 21.565 70.2019 20.278 70.7893 19.1724C71.3939 18.0495 72.2318 17.1857 73.3028 16.5811C74.3912 15.9764 75.635 15.6741 77.0343 15.6741C78.3817 15.6741 79.5824 15.9678 80.6362 16.5552C81.6899 17.1425 82.5105 17.9717 83.0979 19.0428C83.6852 20.0966 83.9789 21.3145 83.9789 22.6965ZM80.8953 21.7636C80.878 20.6753 80.4893 19.8029 79.7292 19.1464C78.9691 18.49 78.0276 18.1618 76.9047 18.1618C75.8855 18.1618 75.0131 18.49 74.2875 19.1464C73.562 19.7856 73.1301 20.658 72.9919 21.7636H80.8953ZM90.8723 18.3172V26.2206C90.8723 26.7562 90.9932 27.1449 91.235 27.3867C91.4942 27.6113 91.926 27.7236 92.5307 27.7236H94.3446V30.1853H92.0124C90.6822 30.1853 89.663 29.8743 88.9547 29.2524C88.2464 28.6305 87.8923 27.6199 87.8923 26.2206V18.3172H86.208V15.9073H87.8923V12.3573H90.8723V15.9073H94.3446V18.3172H90.8723ZM96.6224 22.9815C96.6224 21.5477 96.9161 20.278 97.5034 19.1724C98.1081 18.0667 98.92 17.2116 99.9393 16.607C100.976 15.9851 102.116 15.6741 103.36 15.6741C104.483 15.6741 105.459 15.8987 106.288 16.3479C107.134 16.7797 107.808 17.3239 108.309 17.9804V15.9073H111.289V30.1853H108.309V28.0605C107.808 28.7342 107.126 29.2956 106.262 29.7448C105.398 30.1939 104.414 30.4185 103.308 30.4185C102.081 30.4185 100.958 30.1076 99.9393 29.4857C98.92 28.8465 98.1081 27.9654 97.5034 26.8425C96.9161 25.7024 96.6224 24.4154 96.6224 22.9815ZM108.309 23.0334C108.309 22.0487 108.102 21.1936 107.687 20.468C107.29 19.7424 106.763 19.1896 106.107 18.8096C105.45 18.4295 104.742 18.2395 103.982 18.2395C103.222 18.2395 102.513 18.4295 101.857 18.8096C101.2 19.1724 100.665 19.7165 100.25 20.4421C99.8529 21.1504 99.6542 21.9969 99.6542 22.9815C99.6542 23.9662 99.8529 24.83 100.25 25.5728C100.665 26.3157 101.2 26.8857 101.857 27.2831C102.531 27.6631 103.239 27.8531 103.982 27.8531C104.742 27.8531 105.45 27.6631 106.107 27.2831C106.763 26.903 107.29 26.3502 107.687 25.6246C108.102 24.8818 108.309 24.0181 108.309 23.0334ZM130.091 12.1759V30.1853H127.137V22.3078H118.663V30.1853H115.709V12.1759H118.663V19.8979H127.137V12.1759H130.091ZM140.713 30.4185C139.365 30.4185 138.147 30.1162 137.059 29.5116C135.97 28.8897 135.115 28.0259 134.493 26.9203C133.872 25.7974 133.561 24.5018 133.561 23.0334C133.561 21.5822 133.88 20.2952 134.519 19.1724C135.159 18.0495 136.031 17.1857 137.137 16.5811C138.242 15.9764 139.477 15.6741 140.842 15.6741C142.207 15.6741 143.442 15.9764 144.548 16.5811C145.653 17.1857 146.526 18.0495 147.165 19.1724C147.804 20.2952 148.124 21.5822 148.124 23.0334C148.124 24.4845 147.795 25.7715 147.139 26.8944C146.482 28.0173 145.584 28.8897 144.444 29.5116C143.321 30.1162 142.077 30.4185 140.713 30.4185ZM140.713 27.8531C141.473 27.8531 142.181 27.6718 142.837 27.309C143.511 26.9462 144.055 26.402 144.47 25.6765C144.884 24.9509 145.092 24.0699 145.092 23.0334C145.092 21.9969 144.893 21.1245 144.496 20.4162C144.098 19.6906 143.572 19.1464 142.915 18.7837C142.259 18.4209 141.55 18.2395 140.79 18.2395C140.03 18.2395 139.322 18.4209 138.665 18.7837C138.026 19.1464 137.517 19.6906 137.137 20.4162C136.757 21.1245 136.566 21.9969 136.566 23.0334C136.566 24.5709 136.955 25.7628 137.733 26.6093C138.527 27.4385 139.521 27.8531 140.713 27.8531ZM164.514 15.9073V30.1853H161.56V28.501C161.094 29.0883 160.48 29.5548 159.72 29.9003C158.977 30.2285 158.183 30.3926 157.336 30.3926C156.213 30.3926 155.203 30.1594 154.305 29.693C153.424 29.2265 152.724 28.5355 152.206 27.6199C151.705 26.7043 151.454 25.5987 151.454 24.3031V15.9073H154.382V23.8626C154.382 25.1409 154.702 26.1256 155.341 26.8166C155.98 27.4904 156.853 27.8272 157.958 27.8272C159.064 27.8272 159.936 27.4904 160.575 26.8166C161.232 26.1256 161.56 25.1409 161.56 23.8626V15.9073H164.514ZM174.134 30.4185C173.011 30.4185 172.001 30.2199 171.102 29.8225C170.221 29.4079 169.522 28.8551 169.004 28.1641C168.485 27.4558 168.209 26.6698 168.174 25.806H171.232C171.284 26.4107 171.569 26.9203 172.087 27.3349C172.623 27.7322 173.288 27.9309 174.082 27.9309C174.912 27.9309 175.551 27.7754 176 27.4645C176.466 27.1362 176.7 26.7216 176.7 26.2206C176.7 25.6851 176.441 25.2878 175.922 25.0287C175.421 24.7695 174.618 24.4845 173.512 24.1735C172.441 23.8798 171.569 23.5948 170.895 23.3184C170.221 23.042 169.634 22.6188 169.133 22.0487C168.649 21.4786 168.408 20.7271 168.408 19.7943C168.408 19.0342 168.632 18.3431 169.081 17.7212C169.53 17.0821 170.17 16.5811 170.999 16.2183C171.845 15.8555 172.813 15.6741 173.901 15.6741C175.525 15.6741 176.829 16.0887 177.814 16.9179C178.816 17.7299 179.351 18.8441 179.42 20.2607H176.466C176.415 19.6215 176.155 19.1119 175.689 18.7318C175.223 18.3518 174.592 18.1618 173.797 18.1618C173.02 18.1618 172.424 18.3086 172.009 18.6023C171.595 18.896 171.388 19.2846 171.388 19.7683C171.388 20.1484 171.526 20.468 171.802 20.7271C172.079 20.9863 172.415 21.1936 172.813 21.349C173.21 21.4872 173.797 21.6686 174.575 21.8932C175.611 22.1696 176.458 22.4546 177.114 22.7483C177.788 23.0247 178.367 23.4393 178.85 23.9921C179.334 24.5449 179.585 25.2791 179.602 26.1947C179.602 27.0067 179.377 27.7322 178.928 28.3714C178.479 29.0106 177.84 29.5116 177.011 29.8743C176.199 30.2371 175.24 30.4185 174.134 30.4185ZM196.42 22.6965C196.42 23.232 196.385 23.7157 196.316 24.1476H185.407C185.493 25.2878 185.916 26.2034 186.676 26.8944C187.437 27.5854 188.369 27.9309 189.475 27.9309C191.064 27.9309 192.187 27.2658 192.844 25.9356H196.031C195.599 27.2485 194.813 28.3282 193.673 29.1747C192.55 30.0039 191.151 30.4185 189.475 30.4185C188.11 30.4185 186.884 30.1162 185.795 29.5116C184.724 28.8897 183.878 28.0259 183.256 26.9203C182.651 25.7974 182.349 24.5018 182.349 23.0334C182.349 21.565 182.643 20.278 183.23 19.1724C183.835 18.0495 184.672 17.1857 185.744 16.5811C186.832 15.9764 188.076 15.6741 189.475 15.6741C190.822 15.6741 192.023 15.9678 193.077 16.5552C194.131 17.1425 194.951 17.9717 195.539 19.0428C196.126 20.0966 196.42 21.3145 196.42 22.6965ZM193.336 21.7636C193.319 20.6753 192.93 19.8029 192.17 19.1464C191.41 18.49 190.468 18.1618 189.345 18.1618C188.326 18.1618 187.454 18.49 186.728 19.1464C186.003 19.7856 185.571 20.658 185.433 21.7636H193.336Z" fill="white"/>
</svg>
