<svg width="19" height="18" viewBox="0 0 19 18" fill="none" xmlns="http://www.w3.org/2000/svg">
<path d="M13.5584 0.811188C12.7006 0.852032 11.9144 1.05626 11.1996 1.42385C10.4848 1.79145 9.88239 2.32243 9.39225 3.01678C8.90212 2.32243 8.29967 1.79145 7.58489 1.42385C6.87011 1.05626 6.08386 0.862244 5.22613 0.841822C4.3684 0.8214 3.55151 1.06647 2.77547 1.57702C1.99942 2.08757 1.37655 2.7513 0.906836 3.56818C0.437126 4.38507 0.202271 5.26322 0.202271 6.20265C0.202271 7.59135 0.590292 8.99027 1.36633 10.3994C2.14238 11.8085 3.2656 13.1666 4.736 14.4736C6.1247 15.699 7.63595 16.7609 9.26972 17.6595C9.35141 17.7003 9.4331 17.7003 9.51479 17.6595C11.1486 16.7609 12.6598 15.699 14.0485 14.4736C15.5189 13.1666 16.6421 11.8085 17.4182 10.3994C18.1942 8.99027 18.5822 7.59135 18.5822 6.20265C18.5822 5.26322 18.3474 4.38507 17.8777 3.56818C17.408 2.7513 16.7851 2.08757 16.009 1.57702C15.233 1.06647 14.4161 0.811188 13.5584 0.811188ZM9.39225 17.0468C8.49368 16.5567 7.5951 15.9644 6.69652 15.2701C5.06275 14.0448 3.75573 12.7786 2.77547 11.4716C1.46845 9.71526 0.814936 7.95895 0.814936 6.20265C0.814936 5.38576 1.01916 4.60971 1.4276 3.87452C1.83605 3.13932 2.38744 2.54707 3.0818 2.09779C3.77615 1.6485 4.51135 1.43406 5.28739 1.45449C6.06344 1.47491 6.79864 1.67913 7.49299 2.06715C8.18734 2.45517 8.73874 2.99636 9.14719 3.69072C9.18803 3.81325 9.26972 3.87452 9.39225 3.87452C9.51479 3.87452 9.59647 3.81325 9.63732 3.69072C10.0458 2.99636 10.5972 2.45517 11.2915 2.06715C11.9859 1.67913 12.7211 1.47491 13.4971 1.45449C14.2732 1.43406 15.0084 1.6485 15.7027 2.09779C16.3971 2.54707 16.9485 3.13932 17.3569 3.87452C17.7653 4.60971 17.9696 5.38576 17.9696 6.20265C17.9696 7.95895 17.3161 9.71526 16.009 11.4716C15.0288 12.7786 13.7218 14.0448 12.088 15.2701C11.1894 15.9644 10.2908 16.5567 9.39225 17.0468Z" fill="#484848"/>
</svg>
