<svg width="18" height="19" viewBox="0 0 18 19" fill="none" xmlns="http://www.w3.org/2000/svg">
<path d="M14.3784 12.0232C13.8475 12.0232 13.3573 12.1355 12.908 12.3602C12.4587 12.5848 12.0707 12.9013 11.744 13.3098L6.72011 10.7366C6.8018 10.4098 6.84264 10.1035 6.84264 9.81759C6.84264 9.36831 6.76095 8.95986 6.59758 8.59226L11.9278 5.4064C12.2137 5.774 12.5711 6.0497 12.9999 6.2335C13.4288 6.4173 13.8883 6.5092 14.3784 6.5092C15.277 6.5092 16.0428 6.20287 16.6759 5.5902C17.309 4.97754 17.6256 4.22192 17.6256 3.32334C17.6256 2.42476 17.309 1.65893 16.6759 1.02584C16.0428 0.392756 15.277 0.0762119 14.3784 0.0762119C13.4799 0.0762119 12.714 0.392756 12.0809 1.02584C11.4478 1.65893 11.1313 2.42476 11.1313 3.32334C11.1313 3.73178 11.213 4.1198 11.3764 4.4874L6.04618 7.67326C5.71942 7.34651 5.35182 7.08102 4.94338 6.8768C4.53494 6.67258 4.08565 6.57047 3.59552 6.57047C2.69694 6.57047 1.93111 6.88701 1.29802 7.5201C0.664933 8.15319 0.348389 8.91902 0.348389 9.81759C0.348389 10.7162 0.664933 11.482 1.29802 12.1151C1.93111 12.7482 2.69694 13.0647 3.59552 13.0647C4.12649 13.0647 4.62684 12.9422 5.09655 12.6971C5.56626 12.4521 5.94407 12.1049 6.22998 11.6556L11.3151 14.2901C11.1926 14.576 11.1313 14.8823 11.1313 15.209C11.1313 16.1076 11.4478 16.8735 12.0809 17.5065C12.714 18.1396 13.4799 18.4562 14.3784 18.4562C15.277 18.4562 16.0428 18.1396 16.6759 17.5065C17.309 16.8735 17.6256 16.1076 17.6256 15.209C17.6256 14.3105 17.309 13.5549 16.6759 12.9422C16.0428 12.3295 15.277 12.0232 14.3784 12.0232ZM14.3784 1.17901C14.9502 1.17901 15.4506 1.38323 15.8795 1.79168C16.3083 2.20012 16.5228 2.70046 16.5228 3.29271C16.5228 3.88495 16.3083 4.3955 15.8795 4.82437C15.4506 5.25324 14.94 5.46767 14.3478 5.46767C13.7556 5.46767 13.2552 5.25324 12.8468 4.82437C12.4383 4.3955 12.2341 3.88495 12.2341 3.29271C12.2341 2.70046 12.4383 2.20012 12.8468 1.79168C13.2552 1.38323 13.7658 1.17901 14.3784 1.17901ZM3.59552 11.9619C3.02369 11.9619 2.52335 11.7475 2.09449 11.3186C1.66562 10.8898 1.45119 10.3792 1.45119 9.78696C1.45119 9.19472 1.66562 8.69437 2.09449 8.28593C2.52335 7.87749 3.03391 7.67326 3.62615 7.67326C4.21839 7.67326 4.71874 7.87749 5.12718 8.28593C5.53562 8.69437 5.73984 9.19472 5.73984 9.78696C5.73984 10.3792 5.53562 10.8898 5.12718 11.3186C4.71874 11.7475 4.20818 11.9619 3.59552 11.9619ZM14.3784 17.3534C13.7658 17.3534 13.2552 17.1492 12.8468 16.7407C12.4383 16.3323 12.2341 15.8319 12.2341 15.2397C12.2341 14.6474 12.4383 14.1369 12.8468 13.708C13.2552 13.2792 13.7556 13.0647 14.3478 13.0647C14.94 13.0647 15.4506 13.2792 15.8795 13.708C16.3083 14.1369 16.5228 14.6474 16.5228 15.2397C16.5228 15.8319 16.3083 16.3323 15.8795 16.7407C15.4506 17.1492 14.9502 17.3534 14.3784 17.3534Z" fill="#484848"/>
</svg>
